<?xml version="1.0" ?><svg viewBox="0 0 32 32" xmlns="http://www.w3.org/2000/svg"><defs><style>.cls-1{fill:#101820;}</style></defs><title/><g data-name="Layer 41" id="Layer_41"><path class="cls-1" d="M23,31H9a3,3,0,0,1-3-3V4A3,3,0,0,1,9,1H23a3,3,0,0,1,3,3V28A3,3,0,0,1,23,31ZM9,3A1,1,0,0,0,8,4V28a1,1,0,0,0,1,1H23a1,1,0,0,0,1-1V4a1,1,0,0,0-1-1Z"/><path class="cls-1" d="M25,7H7A1,1,0,0,1,7,5H25a1,1,0,0,1,0,2Z"/><path class="cls-1" d="M25,25H7a1,1,0,0,1,0-2H25a1,1,0,0,1,0,2Z"/><rect class="cls-1" height="2" width="2" x="15" y="26"/></g></svg>